<svg xmlns="http://www.w3.org/2000/svg" viewBox="0 0 662 222"><path d="M 261.0820 48.7710 C 261.8620 48.4920 265.2430 49.7790 268.5960 51.6320 C 273.0020 54.0660 275.9510 55.0000 279.2310 55.0000 C 282.9690 55.0000 284.0590 55.4410 285.4080 57.5000 L 287.0460 60.0000 L 329.4730 60.0000 C 366.7700 60.0000 372.0060 60.1880 372.7690 61.5510 C 373.5420 62.9330 386.0910 63.1690 487.7280 63.7130 C 591.1970 64.2660 601.9680 64.1750 603.4100 62.7330 C 604.2840 61.8580 605.0000 60.6610 605.0000 60.0710 C 605.0000 59.4820 605.4610 59.0000 606.0250 59.0000 C 606.5880 59.0000 607.4770 57.8750 608.0000 56.5000 C 608.6720 54.7330 609.7000 54.0000 611.5070 54.0000 C 614.8460 54.0000 621.0000 56.5910 621.0000 57.9970 C 621.0000 58.6010 622.1910 60.1990 623.6460 61.5480 C 625.5970 63.3560 627.4150 64.0000 630.5670 64.0000 C 634.5030 64.0000 634.8930 64.2370 635.5000 67.0000 C 635.8620 68.6500 635.8620 71.3500 635.5000 73.0000 L 634.8410 76.0000 L 606.6710 76.0940 C 591.1770 76.1460 576.9250 76.3100 575.0000 76.4580 C 573.0750 76.6060 566.6630 76.7890 560.7500 76.8640 C 554.3410 76.9450 550.0000 77.4040 550.0000 78.0000 C 550.0000 78.5500 551.5420 79.0000 553.4270 79.0000 C 559.8050 79.0000 563.2630 87.2490 559.3080 93.0270 C 558.3770 94.3870 557.1930 95.7880 556.6750 96.1410 C 554.7940 97.4230 536.8440 98.2440 535.7010 97.1010 C 535.0950 96.4950 532.7170 96.0000 530.4150 96.0000 C 527.0210 96.0000 525.9110 96.4870 524.5410 98.5780 C 523.4600 100.2270 522.2900 100.9420 521.2950 100.5600 C 520.4390 100.2310 507.3100 100.6420 492.1190 101.4720 C 438.0580 104.4280 385.5910 107.0000 379.3700 107.0000 C 371.7820 107.0000 364.0000 103.7880 364.0000 100.6560 C 364.0000 98.8670 363.4800 98.7590 357.5340 99.3150 C 353.7840 99.6650 350.8190 99.5150 350.4750 98.9590 C 349.6000 97.5440 298.1650 97.7090 293.8990 99.1410 C 292.0300 99.7680 285.6850 103.1990 279.8010 106.7660 C 268.3490 113.7060 264.5370 114.8880 253.3850 114.9560 C 244.6490 115.0100 241.9890 113.2810 239.1770 105.7250 L 237.2320 100.5000 L 231.5320 100.1980 C 215.5370 99.3490 199.4820 111.7550 196.6200 127.1740 L 195.9380 130.8470 L 189.3340 131.5550 C 179.0650 132.6540 168.8500 131.4130 166.8820 128.8250 C 165.8670 127.4910 164.5620 126.8880 163.3820 127.2090 C 162.3470 127.4900 136.7500 137.5110 106.5000 149.4790 C 76.2500 161.4460 49.2500 171.8570 46.5000 172.6150 C 35.0570 175.7650 32.9220 170.6890 31.0160 135.8010 C 29.9880 116.9620 30.8800 103.3580 33.3960 99.5180 C 36.5770 94.6640 38.8820 94.2990 106.5410 87.9500 L 171.3460 81.8680 L 173.7460 84.9340 C 175.6120 87.3190 176.9260 88.0000 179.6620 88.0000 C 186.2490 88.0000 208.5790 79.5110 233.9030 67.3790 C 242.3750 63.3210 249.9010 60.0000 250.6280 60.0000 C 251.3540 60.0000 252.6250 58.7630 253.4510 57.2500 C 255.3680 53.7410 259.2510 49.4270 261.0820 48.7710 Z M 250.2000 101.2000 C 248.2790 103.1210 248.7990 107.7350 251.1890 109.9610 C 253.0310 111.6770 253.1100 112.0000 251.6890 112.0000 C 249.2610 112.0000 246.0350 108.4250 245.3440 104.9690 C 244.4900 100.7020 243.0000 101.3110 243.0000 105.9270 C 243.0000 108.8780 243.5950 110.3230 245.3910 111.7350 C 247.4750 113.3750 248.7660 113.5210 255.4820 112.8800 C 264.3400 112.0340 267.0000 110.3400 267.0000 105.5450 C 267.0000 100.9600 265.4420 100.0000 258.0000 100.0000 C 254.2000 100.0000 250.8910 100.5090 250.2000 101.2000 Z M 607.3510 62.2500 C 607.0930 62.6630 609.8600 63.0000 613.5000 63.0000 C 617.8330 63.0000 619.8960 62.6400 619.4740 61.9590 C 618.7600 60.8020 608.0960 61.0580 607.3510 62.2500 Z M 531.5000 80.0000 C 531.1600 80.5500 531.8090 81.0000 532.9410 81.0000 C 534.0730 81.0000 535.0000 80.5500 535.0000 80.0000 C 535.0000 79.4500 534.3520 79.0000 533.5590 79.0000 C 532.7660 79.0000 531.8400 79.4500 531.5000 80.0000 Z" fill="white" fill-rule="nonzero"/></svg>
